# xmcd
#
# Track frame offsets:
#	150
#	18510
#	36263
#	55791
#	72945
#	90022
#	120047
#	137285
#	160193
#	181579
#	205429
#	231112
#	253156
#	272424
#	291809
#	306721
#	318598
#
# Disc length: 4454 seconds
#
# Revision: 0
# Processed by: cddbd v1.5.2PL0 Copyright (c) Steve Scherf et al.
# Submitted via: audiograbber 1.83.01
#
DISCID=e2116411
DTITLE=VA la ruta del americana - cd 2
DYEAR=2004
DGENRE=COUNTRY
TTITLE0=16 HORSEPOWER - HUTTERMITE MILE
TTITLE1=CHUCK PROPHET - NO OTHER LOVE
TTITLE2=ELENI MANDEL - ANOTHER LONELY DAY
TTITLE3=MARK EITZEL - HELP ME MAKE IT
TTITLE4=DAYNA KURTZ - LOVE GETS IN THE WAY
TTITLE5=VIC CHESNUTT - I´M THROUGH
TTITLE6=MARK OLSON and CREDIPPERS - BELLS OF ST. MARY
TTITLE7=RAINER - ODE N20
TTITLE8=LILIUM - LOVER
TTITLE9=THE WALKABOUTS - THE RIVER PEOPLE
TTITLE10=WILLARD GRANT CONSPIRACY - SOFT HAND
TTITLE11=JOHNNY DOWD - WEDDING DRESS
TTITLE12=CENTRO-MATIC - FLASHES and CABLES
TTITLE13=FRIENDS OF DEAN MARTINEZ - LOST HORIZON
TTITLE14=TERRY LEE HALE - RAINER´S SONG
TTITLE15=THOMAS ANDERSON - THEREMIN CIDER
TTITLE16=AINARA LEGARDON - IN THE  MIRROR
EXTD=
EXTT0=
EXTT1=
EXTT2=
EXTT3=
EXTT4=
EXTT5=
EXTT6=
EXTT7=
EXTT8=
EXTT9=
EXTT10=
EXTT11=
EXTT12=
EXTT13=
EXTT14=
EXTT15=
EXTT16=
PLAYORDER=
